<svg width="83" height="56" viewBox="0 0 83 56" fill="none" xmlns="http://www.w3.org/2000/svg">
<path d="M38.0962 35.7821L61.4968 8.82673L63.3955 10.6002L38.0962 35.7821Z" fill="#E85909"/>
<path d="M37.8391 37.5872L69.5183 21.137L70.6309 23.4848L37.8391 37.5872Z" fill="#E85909"/>
<path d="M34.8533 36.6625L70.549 36.6802L70.4532 39.2765L34.8533 36.6625Z" fill="#E85909"/>
<path d="M41.6667 16.0833L16.6667 19.0208V22.3333H41.6667V24.4167H16.6667V34.8333H41.6667C41.6667 38.6042 40.4792 42.0417 38.1667 45.1458C35.8542 48.25 32.8542 50.5208 29.1667 52.0208V55.6667H12.5V52.0208C8.83333 50.5208 5.8125 48.2292 3.5 45.1458C1.1875 42.0625 0 38.6042 0 34.8333H6.25V18.1667L41.6667 14V16.0833ZM8.33333 20V22.3333H10.4167V19.7917L8.33333 20ZM8.33333 24.4167V34.8333H10.4167V24.4167H8.33333ZM14.5833 34.8333V24.4167H12.5V34.8333H14.5833ZM14.5833 22.3333V19.3125L12.5 19.5V22.3333H14.5833Z" fill="url(#paint0_linear_18_7)"/>
<defs>
<linearGradient id="paint0_linear_18_7" x1="20.8333" y1="14" x2="20.8333" y2="55.6667" gradientUnits="userSpaceOnUse">
<stop stop-color="#E85909"/>
<stop offset="1" stop-color="#A23A00"/>
</linearGradient>
</defs>
</svg>
